<svg xmlns="http://www.w3.org/2000/svg" viewBox="0 0 19.13 19.13"><defs><style>.cls-1{fill:#fff;}</style></defs><title>Reddit</title><g id="Layer_2" data-name="Layer 2"><g id="Layer_1-2" data-name="Layer 1"><g id="Group_149" data-name="Group 149"><g id="reddit-1"><g id="Group_146" data-name="Group 146"><path id="Subtraction_1" data-name="Subtraction 1" class="cls-1" d="M9.56,19.13a9.57,9.57,0,1,1,9.57-9.57A9.58,9.58,0,0,1,9.56,19.13Zm-5-11a1.39,1.39,0,0,0-1,.44,1.42,1.42,0,0,0-.38,1,1.37,1.37,0,0,0,.44,1,1.19,1.19,0,0,0,.38.25,3.09,3.09,0,0,0,0,.43c0,2.14,2.5,3.88,5.57,3.88s5.58-1.74,5.58-3.88a3.09,3.09,0,0,0,0-.43,1.38,1.38,0,0,0-.63-2.61h0a1.39,1.39,0,0,0-.91.38A6.75,6.75,0,0,0,9.89,7.43l.62-3,2.05.43a1,1,0,0,0,.95.86h.1a1,1,0,0,0,.85-1,1,1,0,0,0-1-.86h-.1a1,1,0,0,0-.72.47l-2.35-.47h-.06a.31.31,0,0,0-.29.24h0L9.28,7.37A6.81,6.81,0,0,0,5.55,8.55a1.36,1.36,0,0,0-1-.38Zm5.12,5.72h-.3a3.65,3.65,0,0,1-2.21-.74.25.25,0,0,1,0-.36.27.27,0,0,1,.17-.06.23.23,0,0,1,.16.06,3.14,3.14,0,0,0,1.85.6h.31a3.13,3.13,0,0,0,1.83-.58A.27.27,0,0,1,12,13a.33.33,0,0,1-.08.19v0a3.7,3.7,0,0,1-2.22.74Zm2.08-2.34h0v0a1,1,0,1,1,1-.95.94.94,0,0,1-.25.68,1,1,0,0,1-.67.31Zm-4.46-.07h0a1,1,0,1,1,.95-1,1,1,0,0,1-.95,1Z"/></g></g></g></g></g></svg>