<svg xmlns="http://www.w3.org/2000/svg" viewBox="0 0 400 400"><defs><style>.cls-1{fill:#fff;}</style></defs><title>Twitter</title><g id="Layer_2" data-name="Layer 2"><g id="Logo_FIXED" data-name="Logo — FIXED"><path class="cls-1" d="M200,0C89.54,0,0,89.54,0,200S89.54,400,200,400s200-89.54,200-200S310.46,0,200,0ZM300.45,162.08q.14,3.1.14,6.23c0,63.71-48.5,137.18-137.18,137.18A136.53,136.53,0,0,1,89.5,283.84a99.21,99.21,0,0,0,11.5.66,96.74,96.74,0,0,0,59.88-20.63,48.29,48.29,0,0,1-45-33.49,48.09,48.09,0,0,0,21.78-.83,48.24,48.24,0,0,1-38.69-47.26c0-.22,0-.42,0-.62a47.77,47.77,0,0,0,21.84,6,48.25,48.25,0,0,1-14.92-64.36,136.86,136.86,0,0,0,99.38,50.37,48.24,48.24,0,0,1,82.16-44A96.63,96.63,0,0,0,318,118a48.37,48.37,0,0,1-21.2,26.67,96.64,96.64,0,0,0,27.69-7.59A98.24,98.24,0,0,1,300.45,162.08Z"/></g></g></svg>